<?xml version="1.0" encoding="UTF-8" standalone="no"?>
<!-- Created with Inkscape (http://www.inkscape.org/) -->

<svg
   version="1.1"
   id="svg1"
   width="591.77698"
   height="568.05408"
   viewBox="0 0 591.77698 568.05408"
   xmlns="http://www.w3.org/2000/svg"
   xmlns:svg="http://www.w3.org/2000/svg">
  <defs
     id="defs1" />
  <g
     id="g1"
     transform="translate(1286.8903,-584.85011)">
    <path
       id="path1"
       style="fill:#ff00bf;fill-opacity:1"
       d="m -868.03482,584.90089 c -9.7766,-0.26361 -21.74701,0.51479 -33.35742,2.23828 -12.54444,1.86216 -18.92367,3.65674 -28.09375,7.90234 -8.49819,3.93453 -23.35316,15.74684 -24.23828,19.27344 -0.75101,2.99223 2.8636,11.21997 6.38086,14.52148 3.56338,3.34487 10.36694,2.88892 23.69531,-1.58593 15.2007,-5.10348 26.33151,-6.34108 42.66016,-4.74414 26.82727,2.62368 45.0988,8.39433 63.46679,20.04296 4.9448,2.8911 9.47713,6.39688 13.99805,9.89063 12.45399,9.30803 18.03869,14.73246 25.84766,25.10742 11.76684,15.63343 16.27874,24.22446 21.95703,41.78906 5.35562,16.56668 7.03832,27.92404 6.99804,47.27344 -0.0299,14.35889 -0.39163,18.05717 -2.78906,28.5 -3.53399,15.3937 -5.66778,21.689 -11.51758,33.99609 -8.41968,17.71387 -16.13571,26.49706 -63.22851,71.98047 -5.68125,5.48707 -22.70318,21.9592 -37.82813,36.60352 -15.1249,14.64427 -32.42521,31.30491 -38.44336,37.02344 -21.98768,20.89309 -51.42151,49.63831 -66.05664,64.50981 -8.24995,8.3829 -15.9842,15.7245 -17.18554,16.3144 -4.84319,2.3786 -8.61265,1.3313 -15.42191,-4.2852 -3.573,-2.9469 -8.6667,-7.8982 -11.3183,-11.0019 -7.2374,-8.4715 -93.6609,-93.01556 -129.5742,-126.75586 -37.6703,-35.39077 -54.4627,-52.29073 -63.9747,-64.38477 -11.6722,-14.84116 -21.5404,-36.25342 -25.5761,-55.5 -2.3371,-11.14604 -2.3902,-38.37704 -0.1016,-52.08203 1.7813,-10.66698 7.8782,-32.75083 10.3262,-37.4043 0.8715,-1.65661 2.6029,-5.03869 3.8457,-7.51367 5.5313,-11.01433 12.0624,-19.41195 24.6738,-31.72266 10.0487,-9.80916 16.5602,-14.71037 29.8067,-22.44335 24.8721,-14.51985 43.9843,-19.81827 71.5,-19.82227 18.9245,-0.003 34.5352,2.84027 46.705,8.50586 2.9115,1.35544 6.0386,2.46766 6.9493,2.47266 2.6719,0.0158 11.6087,-14.74144 8.4218,-20.78907 -2.258,-4.28495 -11.6155,-12.77125 -17.0761,-15.48633 -7.1457,-3.5527 -16.9414,-6.39375 -32.4668,-9.41796 -11.423,-2.22509 -16.2625,-2.63982 -31.0332,-2.6543 -15.2522,-0.015 -19.2032,0.33578 -30.7579,2.73242 -14.658,3.04037 -22.5772,5.54575 -35.1503,11.11719 -45.3682,20.1033 -78.4451,54.63186 -96.9727,101.22851 -7.366,18.52532 -10.8008,36.26709 -13.2148,68.2793 -2.3925,31.72371 1.0731,53.82661 13.2226,84.32227 5.4344,13.64058 7.9607,18.37735 16.9902,31.85547 10.1788,15.19319 19.928,25.33211 99.3829,103.37109 35.1997,34.5727 79.3001,78.1913 98,96.9297 21.9955,23.3169 46.6276,43.7717 67.89253,67.8164 l 64.18555,-65.2344 c 5.45645,-5.192 21.87049,-21.167 36.47461,-35.5 14.60406,-14.333 35.75421,-35.0344 47,-46.0039 11.24578,-10.96958 38.31286,-37.70404 60.15039,-59.40819 37.03795,-36.81173 40.36642,-40.40825 49.53711,-53.55469 13.29836,-19.06362 17.75097,-26.4191 22.43945,-37.0625 9.77756,-22.19607 15.76562,-49.88936 15.79102,-73.03125 0.0345,-31.40832 -6.3589,-59.30969 -16.53321,-87.65039 -8.00327,-22.29324 -22.83982,-40.78471 -39.10552,-57.58559 -2.28497,-2.45469 -4.49847,-4.92966 -6.98432,-7.20352 l -2.37487,-2.07393 c -11.5687,-9.91513 -30.7255,-22.76868 -39.7697,-26.38896 -2.43083,-1.01081 -4.80365,-2.16582 -7.19531,-3.26758 -10.62574,-5.09745 -46.77596,-12.70409 -52.00782,-13.42578 -2.67694,-0.32318 -5.69229,-0.52541 -8.95117,-0.61328 z m -26.26953,82.58593 c -27.61582,0.98455 -55.21102,12.84384 -76.2793,33.15039 -8.87705,8.55614 -16.09735,13.97266 -18.625,13.97266 -2.57333,0 -11.14005,-5.51498 -17.93165,-11.54687 -5.9227,-5.26015 -23.7404,-17.22972 -33.9433,-22.80079 -9.0231,-4.9267 -25.7802,-10.31051 -36.5,-11.72656 -11.4765,-1.51596 -28.6919,-0.64577 -38.6661,1.95313 -10.0109,2.60845 -26.7382,10.60019 -34.4882,16.47851 -15.839,12.01341 -27.9324,29.54387 -34.043,49.34766 -2.5784,8.35591 -2.7152,9.84693 -2.7578,29.79492 -0.041,19.3007 0.1442,21.60689 2.2988,28.5 6.2119,19.87341 16.5459,36.50344 32.625,52.5 12.5652,12.50073 40.9097,39.37757 58.0313,55.02734 7.1497,6.53537 32.9787,31.81552 57.3984,56.17774 32.5395,32.46289 45.00848,44.29495 46.67968,44.29495 1.53856,0 4.01202,-1.9731 7.60156,-6.06644 7.71466,-8.7973 36.61581,-37.19479 110.32813,-108.40429 39.65799,-38.31145 49.79707,-48.63619 56.06445,-57.09571 24.71596,-33.36067 29.24041,-75.79772 11.82226,-110.88476 -4.98196,-10.0357 -14.99102,-23.49376 -21.22265,-28.53711 -2.02024,-1.63501 -5.67751,-4.59869 -8.12891,-6.58594 -6.29561,-5.10361 -20.95236,-12.22754 -29.82226,-14.49609 -4.14019,-1.05886 -12.52164,-2.3204 -18.625,-2.80274 -3.92702,-0.31035 -7.87128,-0.39065 -11.81641,-0.25 z" />
  </g>
</svg>
