<?xml version="1.0" encoding="UTF-8" standalone="no"?>
<!-- Created with Inkscape (http://www.inkscape.org/) -->

<svg
   version="1.1"
   id="svg1"
   width="457.0896"
   height="443.4082"
   viewBox="0 0 457.0896 443.40821"
   xml:space="preserve"
   xmlns:xlink="http://www.w3.org/1999/xlink"
   xmlns="http://www.w3.org/2000/svg"
   xmlns:svg="http://www.w3.org/2000/svg"><defs
     id="defs1"><linearGradient
       id="linearGradient1076902"><stop
         style="stop-color:#ff00bf;stop-opacity:1;"
         offset="0"
         id="stop1076900" /><stop
         style="stop-color:#ff00bf;stop-opacity:1;"
         offset="0.44238684"
         id="stop1076901" /><stop
         style="stop-color:#ffffff;stop-opacity:1;"
         offset="1"
         id="stop1076902" /></linearGradient><linearGradient
       id="linearGradient1076899"><stop
         style="stop-color:#ff00bf;stop-opacity:1;"
         offset="0"
         id="stop1076897" /><stop
         style="stop-color:#ff00bf;stop-opacity:1;"
         offset="0.44238684"
         id="stop1076898" /><stop
         style="stop-color:#ffffff;stop-opacity:1;"
         offset="1"
         id="stop1076899" /></linearGradient><linearGradient
       id="linearGradient1076886"><stop
         style="stop-color:#a79b9b;stop-opacity:1;"
         offset="0"
         id="stop1076886" /><stop
         style="stop-color:#a79b9b;stop-opacity:0;"
         offset="1"
         id="stop1076887" /></linearGradient><linearGradient
       xlink:href="#linearGradient1076886"
       id="linearGradient1076895"
       gradientUnits="userSpaceOnUse"
       gradientTransform="translate(15.3236,-1820.7235)"
       x1="410.02567"
       y1="-814.78259"
       x2="-71.947037"
       y2="-1236.2183" /><linearGradient
       xlink:href="#linearGradient1076899"
       id="linearGradient1076896"
       gradientUnits="userSpaceOnUse"
       gradientTransform="matrix(1,0,0,1.0447761,-161.4531,-1766.8494)"
       x1="521.88885"
       y1="-1031.2426"
       x2="523.30304"
       y2="-981.03796" /><linearGradient
       xlink:href="#linearGradient1076902"
       id="linearGradient1076897"
       gradientUnits="userSpaceOnUse"
       gradientTransform="matrix(1,0,0,1.0447761,-499.45014,-1761.8997)"
       x1="521.88885"
       y1="-1031.2426"
       x2="523.30304"
       y2="-981.03796" /></defs><g
     id="g1"
     transform="translate(33.889695,3048.1499)"><g
       id="g1076897"><rect
         style="fill:#aae5d5;fill-opacity:1"
         id="rect1076888-9"
         width="457.0896"
         height="443.4082"
         x="-33.889618"
         y="-3048.1499" /><path
         id="rect1076887-9"
         style="fill:#ffffff;fill-opacity:1"
         d="m 298.91833,-2943.5364 -207.89062,2.1211 -14.14258,3.5352 -22.62695,21.2148 -4.94922,12.0195 -5.65625,41.7188 -3.53711,7.7793 H 21.0238 l -14.14062,7.7773 0.70703,56.5684 2.12109,9.1933 8.48438,8.4844 28.99218,-0.707 3.53516,45.9629 5.65625,12.7285 16.26367,13.4336 13.43555,7.0722 14.84961,4.2422 203.64648,-2.1211 25.45508,-12.0214 12.72852,-18.3848 2.82812,-50.9121 31.11328,-1.4141 9.89844,-10.6054 -0.70703,-64.3477 -12.72656,-8.4844 -28.28516,-0.707 -0.70703,-32.5274 -7.07031,-26.164 -10.60743,-11.3125 -12.02148,-10.6074 z" /><path
         style="fill:#f9f9f9;fill-opacity:1"
         d="m 66.9864,-2638.7732 14.1422,-0.7072 17.6776,-16.9705 49.4975,-4.9498 v -54.4472 l 91.9239,2.8284 0.7071,50.2046 41.7193,2.8284 19.0919,16.9706 21.2132,2.8284 -2.1213,2.1214 -255.2656,2.8284 z"
         id="path1076895-3" /><path
         id="path1048737-5-6"
         style="fill:url(#linearGradient1076895)"
         d="m 192.61774,-3027.4902 c -14.81012,-2.4881 -30.20648,7.9048 -33.2584,22.5942 -3.4685,14.0686 4.43444,29.5109 18.29429,34.1554 5.9596,3.011 4.23343,18.4738 -5.4134,13.6932 -28.53134,0.1493 -57.20017,-1.1512 -85.64654,-0.1059 -25.80643,2.39 -48.0816,22.9521 -52.99555,48.3072 -2.19342,12.6832 -0.65523,25.9495 -1.40423,38.8584 -10.49018,1.73 -22.92311,-2.076 -31.9667,4.2729 -7.27561,5.6901 -10.15774,14.2841 -8.63501,23.3109 0.76066,17.6386 -1.33398,35.7 1.26384,53.0666 2.4391,10.1718 12.99602,15.8188 23.05299,13.8496 7.32689,0.9199 20.46522,-3.9787 16.79244,7.9539 -0.80299,18.4549 -0.0761,39.266 13.884,53.0859 7.21805,10.1587 19.12376,14.9474 30.46424,18.9229 17.31047,4.27 35.55602,1.0215 53.27121,2.0373 10.1953,-2.5208 3.32624,11.579 4.9817,17.376 0.61938,8.5758 -13.41325,2.641 -19.25821,4.8157 -15.4412,-1.5731 -30.26006,5.6903 -39.95895,17.5352 -5.34379,9.4962 -5.558,-2.2556 -14.61036,0.4649 -5.12653,0.111 -17.31559,10.1366 -12.2611,11.4204 11.0827,0.4698 22.16694,0.9058 33.24365,1.505 4.2208,-13.1892 18.78698,-21.5392 32.34152,-19.6191 h 156.3948 c 9.71031,3.6129 16.80357,11.5294 23,19.5312 10.58702,-0.8997 22.98766,-0.059 32.5,-1.9902 -4.63733,-8.896 -15.35035,-10.0387 -24.5,-9.1015 -8.12526,-13.8223 -24.46579,-21.1783 -40.24879,-19.7294 -6.41946,-2.1341 -20.56496,3.5847 -20.95279,-4.6819 1.01381,-6.0717 -5.21219,-19.7131 5.5488,-17.4684 17.58829,-0.534 35.45946,0.294 52.87445,-1.0744 15.41694,-5.7818 31.05179,-14.5662 37.56694,-30.5284 7.90273,-15.9931 4.4557,-34.2469 6.01608,-51.457 12.8382,-0.9356 28.85693,3.9402 37.66992,-8.3672 6.61755,-13.6334 2.23981,-29.295 3.40236,-43.9348 -0.59427,-12.8815 3.08425,-29.0989 -9.23802,-37.6528 -8.57166,-7.2021 -21.62024,-2.7789 -32.13893,-4.0457 -0.18083,-19.0851 2.32574,-39.6528 -8.92694,-56.3765 -7.93096,-17.0871 -26.27854,-27.2449 -44.22441,-30.1008 -31.61623,-0.01 -63.23247,-0.016 -94.8487,-0.023 -2.1231,-9.1335 1.76298,-14.3793 10.84971,-16.2566 12.99186,-8.9885 15.83285,-28.2784 6.98624,-41.2317 -4.27121,-7.3257 -12.13703,-10.5545 -19.91215,-13.0112 z m 78.89453,11.9941 c -1.10559,5.7422 -8.67508,10.9 -11.70088,14.8725 4.57064,1.5613 11.87646,14.1932 14.87225,8.6566 0.50275,-5.527 16.7335,-8.7879 6.38464,-12.8528 -7.70992,-0.3493 -3.69208,-9.922 -9.55601,-10.6763 z m -88.88281,0.01 c 7.64369,-1.1534 15.28809,0.7792 19.77267,7.349 5.32592,7.9373 4.28212,19.1236 -4.03067,24.5384 -8.72764,6.1379 -23.16308,2.511 -27.23278,-7.251 0.33846,-7.1955 -3.19461,-15.7125 3.86968,-20.6124 1.63443,-2.4609 5.21375,-2.5824 7.6211,-4.024 z m -77.05273,0.2209 c -6.43221,1.2496 -4.9835,11.628 -13.78646,12.031 -3.10582,6.1454 9.68185,4.0271 10.0306,10.2425 4.41166,9.5592 6.51532,-8.4102 14.31222,-7.2466 2.55618,-4.2405 -10.04006,-7.9372 -10.55636,-15.0269 z m -22.52149,68.7832 c 68.6022,0.1846 137.28171,-0.3674 205.83581,0.2753 20.00202,2.5727 37.44807,18.6685 40.59419,38.7783 3.41165,16.0014 0.72332,32.8493 1.67085,49.1926 -0.66584,40.1485 2.21267,80.5489 -1.67988,120.5109 -3.84727,16.9547 -19.15806,29.9027 -35.93326,32.6587 -70.18145,1.0241 -140.54697,2.9277 -210.62272,-0.5783 -20.40305,-3.6118 -37.83388,-21.8347 -38.73136,-42.6401 -0.005,-53.6095 -0.74491,-107.2932 -0.29389,-160.8567 1.35402,-13.3506 11.66798,-24.3195 22.52118,-31.1931 5.13867,-3.1544 10.93796,-4.4107 16.63908,-6.1476 z m -32.36133,13 c 2.88538,-0.4691 -0.56548,2.7881 0,0 z m 326.94922,6 c 2.97515,7.9439 -14.05407,9.3784 -7.63374,14.6301 7.08449,-1.1545 8.56905,14.7543 12.84984,8.015 0.23613,-6.1862 15.48843,-7.803 9.5692,-13.2468 -9.14971,-0.081 -7.25563,-10.6846 -14.7853,-9.3983 z m -300.0625,2.9981 c -7.00868,-1.242 -12.18404,7.1098 -11.8869,13.2808 5.83756,7.2491 11.62055,-4.0187 15,-8.0161 -0.012,-1.9702 -2.3229,-3.5144 -3.1131,-5.2647 z m 1.11328,4.7558 c 0.19794,5.3945 -7.43207,5.5568 0,0 z m 160.09961,0.1426 c -9.35703,1.5013 -9.03929,14.0253 -0.88219,17.2096 10.51788,8.3026 24.05857,12.9411 36.93347,15.7885 8.67686,3.196 15.69461,-10.1752 7.34911,-14.6957 -14.38049,-1.9681 -28.80327,-6.2696 -39.18359,-16.9648 -1.40533,-0.4467 -2.81097,-0.8925 -4.2168,-1.3376 z m -104.74023,0.1035 c -11.01691,12.3357 -28.28161,13.8187 -42.54129,19.759 -8.0105,5.3474 1.48991,16.8434 9.21249,12.8089 14.09252,-5.4214 30.95704,-8.5117 41.28174,-19.9867 3.77601,-6.1258 -0.31169,-14.0332 -7.95294,-12.5812 z m -141.64063,2 c -1.27522,5.6522 -18.91358,7.8257 -9.14115,12.2956 7.69552,1.5779 10.71606,15.3804 15.35209,2.0775 11.04041,-2.6977 -1.45401,-9.5506 -4.7611,-13.9174 -0.2329,-0.7564 -0.94602,-0.3534 -1.44984,-0.4557 z m 74.28125,4 c 2.88538,-0.4691 -0.56548,2.7881 0,0 z m 62.5,39.795 c -12.15766,-0.5299 -25.52775,3.5266 -31.07919,15.2573 -4.94486,7.9666 -4.06539,18.275 -1.55064,26.8038 6.23332,16.328 28.8486,23.5601 42.8377,12.5278 12.3317,-8.8587 17.85573,-27.2825 8.51118,-40.2055 -4.11014,-7.8956 -11.19723,-10.5671 -18.71905,-14.3834 z m 129,0.02 c -11.6573,-0.5114 -24.24473,2.1591 -30.95822,12.6366 -6.48481,7.5861 -5.58908,18.1223 -4.39796,27.2225 4.15689,10.6867 13.30952,18.9758 24.85237,20.467 2.76937,15.2054 -0.19554,31.4418 2.22633,46.4709 6.02836,7.4928 4.83066,8.2803 13.05557,13.2511 10.90292,4.6465 21.7504,-6.0052 25.20755,-15.3718 -0.62673,-19.2589 0.58753,-38.6225 -1.71797,-57.7858 -3.53294,-2.6056 -11.17638,-5.5652 -8.56191,-8.064 2.12327,-2.0293 8.14106,-24.3465 -19.70576,-38.8265 z m 102,14.1953 c 8.76011,0.2084 13.44004,9.096 11.56653,17.0826 -1.00956,16.2302 0.5065,33.1241 -2.0841,48.9389 -4.88625,8.716 -16.40097,3.5836 -24.48243,4.9375 -4.4886,-6.0721 -0.86701,-16.2706 -2.08932,-24.0046 -0.0604,-15.1547 -0.11887,-30.3094 -0.17825,-45.4641 4.63759,-3.2851 11.84382,-0.6047 17.26757,-1.4903 z m -346.56445,0.9902 c 5.71433,1.3903 19.20919,-3.1064 18.50357,5.4847 0.0192,21.8378 0.0397,43.6756 0.0608,65.5134 -9.48243,-1.2444 -23.48014,3.9996 -27.83413,-7.6663 -1.35607,-18.4606 -0.52819,-37.5525 -1.04673,-56.2557 2.58433,-3.8743 5.96921,-5.6156 10.31646,-7.0761 z m 254.91992,30.8086 c 10.58723,-0.5535 8.40059,11.5605 8.82525,18.7072 -0.50615,14.1074 3.33841,28.7055 -0.73931,42.41 -6.81709,7.9254 -18.17069,-0.497 -16.9255,-9.5145 0.16778,-14.3774 0.17681,-29.4899 3.9221,-43.2113 1.67303,-2.7734 3.10915,-5.7062 4.91746,-8.3914 z m -77.35547,37.9922 c -10.8697,-0.01 -21.42901,1.2189 -30.80824,7.1517 -8.59511,6.1238 -19.76464,13.6837 -21.33709,24.4892 1.2097,9.0244 11.59318,7.3024 14.08146,-0.1128 8.12252,-12.3628 23.01684,-18.6762 37.54079,-16.7593 15.13386,-1.0139 26.43071,10.8193 34.20472,22.4304 7.00683,2.2513 13.65862,-6.5587 7.62174,-11.9735 -8.41503,-13.6889 -22.90432,-23.1868 -39.01507,-24.7384 l -1.29658,-0.2761 z m -205.71484,31.1992 c -0.24892,5.5194 -2.85583,3.977 4.54049,6 -5.3277,7.8611 4.88891,3.6345 1.01647,-2.6181 -1.61491,-1.9443 -2.73251,-4.0953 -5.55696,-3.3819 z m 398.42773,0 c -1.66509,7.5781 -2.09959,10.2652 -3.03685,5.4336 -4.45724,7.7387 14.24037,6.7146 9.10896,-0.8154 -1.91406,-1.8621 -2.69186,-5.7881 -6.07211,-4.6182 z m -0.0566,3.5 c 2.40664,3.5562 -1.18676,5.7188 0,0 z m -0.15625,5.166 c 4.78687,2.382 -4.51677,1.4373 0,0 z m -313.83789,1.334 c -7.38928,2.0094 -1.21796,12.2133 3.28541,14.6133 9.1618,2.9788 8.27155,-9.5986 2.12724,-13.3397 -0.70844,-2.4477 -3.67642,-0.7813 -5.41265,-1.2736 z m 231.76563,0 c -6.35176,2.2677 -12.15019,12.9554 -3.48438,16 6.78914,-0.2331 14.70304,-11.2792 6.19947,-15.447 -0.49688,-1.1697 -1.85637,-0.2569 -2.71509,-0.553 z m -304.41016,29.5 c -0.12297,8.0179 -3.2961,17.3999 -12.36523,18.5508 -7.17087,-1.4338 -10.94435,10.7387 -3.15138,10.9299 6.96305,-0.3374 13.7081,2.1061 14.01856,10.1092 -1.13584,8.6622 11.09744,11.201 10.296,1.4741 -0.70089,-8.428 8.35782,-12.0008 15.43838,-11.5643 6.99851,-7.3251 -2.04771,-12.1582 -9.45021,-11.7108 -7.30331,-3.2239 -4.43275,-12.1113 -8.02245,-17.7892 -2.25456,0 -4.50912,1e-4 -6.76367,3e-4 z m 376.55274,1.5 c -3.86751,6.0378 -3.09603,15.6675 4.41006,17.3915 8.04343,2.7367 5.70318,10.3665 0.94926,15.1085 -8.5751,3.1547 -8.88566,-10.7874 -14.63672,-11.8926 -6.42354,-4.3597 -17.0748,4.8629 -9.3802,9.1694 5.40228,3.0596 14.74604,-1.861 15.576,7.0316 0.73408,6.0771 1.60819,15.0342 9.93897,12.1916 4.94315,-4.8027 -1.98753,-18.1654 8.11951,-17.0131 6.65631,1.9738 15.235,-4.4536 8.77898,-10.6543 -3.79549,-3.981 -16.96312,2.6711 -15.4772,-7.2051 -0.78075,-6.3129 1.93369,-16.7527 -8.27866,-14.1275 z m -374.96875,14 c 6.57115,0.3321 12.75856,10.2082 4.01562,13.2696 -5.28883,4.7938 -13.15656,-5.8768 -6.73633,-9.7032 z m 163.33398,15.5 c 22.02148,0.3334 44.04297,0.6667 66.06445,1 1.9558,10.1768 -0.88514,15.7758 -11.91785,13.5569 -22.78772,1.3083 -45.62679,0.6112 -68.43957,0.9431 -0.63314,-6.141 -4.45415,-17.4464 5.98841,-14.9433 z m -124.3418,12.3321 c -10.14318,2.1165 -2.7685,14.8859 3.2881,9.5566 9.45205,-7.1442 -2.34503,-4.4111 -3.2881,-9.5566 z m -1.84179,4.1328 c 9.62651,9.2508 -10.08998,2.4155 0,0 z m 3.74804,2.0351 c 2.88538,-0.4691 -0.56548,2.7881 0,0 z" /><circle
         style="fill:#ff5555;fill-opacity:1;stroke-width:1.21053"
         id="path1076889-1"
         cx="192.65665"
         cy="-2988.9739"
         r="23" /><ellipse
         style="fill:#ff3ace;fill-opacity:1;stroke-width:0.940666"
         id="circle1076890-7"
         cx="188.414"
         cy="-2997.1057"
         rx="18.050253"
         ry="17.696699" /><circle
         style="fill:#f9f9f9;fill-opacity:1;stroke-width:0.74034"
         id="path1076890-3"
         cx="184.2424"
         cy="-3003.3882"
         r="12.585787" /><rect
         style="fill:url(#linearGradient1076896);stroke-width:1.02214"
         id="rect1076890-9"
         width="35.355339"
         height="49.497475"
         x="343.46521"
         y="-2842.4202" /><rect
         style="fill:url(#linearGradient1076897);stroke-width:1.02214"
         id="rect1076892-8"
         width="35.355339"
         height="49.497475"
         x="5.4681644"
         y="-2837.4705" /><ellipse
         style="fill:#ff00bf;fill-opacity:1"
         id="path1076893-4"
         cx="382.00253"
         cy="-2684.0281"
         rx="8.8388348"
         ry="9.8994951" /><ellipse
         style="fill:#ff00bf;fill-opacity:1"
         id="path1076892-0"
         cx="4.4074497"
         cy="-2689.3315"
         rx="9.5459414"
         ry="8.8388348" /><path
         style="fill:#bed1cc;fill-opacity:1"
         d="m 265.1566,-2821.9739 -6.5,37 2.5,25 7.5,6.5 h 8.5 l 10.5,-7.5 2,-56 -15.5,-10.5 z"
         id="path1076894-6" /><path
         id="path1048737-46"
         style="fill:#333333;fill-opacity:1"
         d="m 198.55444,-3020.8748 c -14.81012,-2.4881 -30.20648,7.9048 -33.2584,22.5942 -3.4685,14.0686 4.43444,29.5109 18.29429,34.1554 4.27696,2.1609 5.59212,13.595 0.86875,13.6372 l -6.28215,0.056 c -28.53134,0.1493 -57.20017,-1.1512 -85.64653,-0.1059 -25.80643,2.39 -48.08161,22.9521 -52.99556,48.3072 -2.19341,12.6832 -0.65522,25.9495 -1.40423,38.8584 -10.49017,1.73 -22.9231,-2.076 -31.96669,4.2729 -7.27561,5.6901 -10.15774,14.2841 -8.63501,23.3109 0.76066,17.6386 -1.33398,35.7 1.26383,53.0667 2.43911,10.1718 12.99602,15.8187 23.053,13.8496 7.32689,0.9198 20.46522,-3.9788 16.79243,7.9539 -0.80299,18.4548 -0.0761,39.2659 13.884,53.0858 7.21806,10.1587 19.12376,14.9475 30.46425,18.9229 17.31047,4.27 35.55601,1.0215 53.2712,2.0374 10.1953,-2.5209 3.32624,11.579 4.9817,17.3759 0.61938,8.5758 -13.41325,2.6411 -19.25821,4.8157 -15.44119,-1.5731 -30.26005,5.6903 -39.95895,17.5353 -5.34379,9.4962 -5.55799,-2.2557 -14.61035,0.4648 -5.12654,0.111 -17.31559,10.1366 -12.26111,11.4204 11.08271,0.4698 22.16695,0.9058 33.24365,1.5051 4.22081,-13.1893 18.78699,-21.5393 32.34152,-19.6192 h 156.3948 c 9.71031,3.6129 16.80357,11.5294 23,19.5313 10.58702,-0.8998 22.98766,-0.059 32.5,-1.9903 -4.63733,-8.896 -15.35035,-10.0386 -24.5,-9.1015 -8.12526,-13.8223 -24.46579,-21.1782 -40.24879,-19.7294 -6.41946,-2.1341 -20.56496,3.5847 -20.95279,-4.6819 1.01381,-6.0717 -5.21219,-19.7131 5.5488,-17.4684 17.58829,-0.534 35.45946,0.294 52.87445,-1.0744 15.41694,-5.7818 31.05179,-14.5662 37.56694,-30.5284 7.90273,-15.9931 4.4557,-34.2469 6.01608,-51.457 12.8382,-0.9355 28.85693,3.9402 37.66992,-8.3671 6.61755,-13.6335 2.23981,-29.2951 3.40236,-43.9349 -0.59427,-12.8815 3.08425,-29.0989 -9.23802,-37.6528 -8.57166,-7.2021 -21.62024,-2.7789 -32.13893,-4.0457 -0.18083,-19.0851 2.32574,-39.6528 -8.92694,-56.3765 -7.93096,-17.0871 -26.27854,-27.2449 -44.22441,-30.1008 -31.61623,-0.01 -63.23247,-0.016 -94.8487,-0.023 -2.1231,-9.1335 1.76298,-14.3793 10.84971,-16.2566 12.99186,-8.9885 15.83285,-28.2784 6.98624,-41.2317 -4.27121,-7.3257 -12.13703,-10.5545 -19.91215,-13.0112 z m 78.89453,11.9941 c -1.10559,5.7422 -8.67508,10.9 -11.70088,14.8725 4.57064,1.5613 11.87646,14.1932 14.87225,8.6566 0.50275,-5.527 16.7335,-8.7879 6.38464,-12.8528 -7.70992,-0.3493 -3.69208,-9.922 -9.55601,-10.6763 z m -88.88281,0.01 c 7.64369,-1.1534 15.28809,0.7792 19.77267,7.349 5.32592,7.9373 4.28212,19.1236 -4.03067,24.5384 -8.72764,6.1379 -23.16308,2.511 -27.23278,-7.251 0.33846,-7.1955 -3.19461,-15.7125 3.86968,-20.6124 1.63443,-2.4609 5.21375,-2.5824 7.6211,-4.024 z m -77.05273,0.2209 c -6.4322,1.2496 -4.98349,11.628 -13.78645,12.031 -3.10582,6.1454 9.68185,4.0271 10.03059,10.2425 4.41167,9.5592 6.51532,-8.4102 14.31222,-7.2466 2.55618,-4.2405 -10.04005,-7.9372 -10.55636,-15.0269 z m -22.52149,68.7832 c 68.6022,0.1846 137.28171,-0.3674 205.83581,0.2753 20.00202,2.5727 37.44807,18.6685 40.59419,38.7783 3.41165,16.0014 0.72332,32.8493 1.67085,49.1926 -0.66584,40.1485 2.21267,80.5489 -1.67988,120.5109 -3.84727,16.9548 -19.15806,29.9027 -35.93326,32.6587 -70.18145,1.0241 -140.54697,2.9277 -210.62271,-0.5783 -20.40306,-3.6117 -37.83388,-21.8347 -38.73137,-42.6401 -0.005,-53.6095 -0.7449,-107.2932 -0.29388,-160.8567 1.35401,-13.3506 11.66798,-24.3195 22.52118,-31.1931 5.13867,-3.1544 10.93796,-4.4107 16.63907,-6.1476 z m -32.36133,13 c 2.88539,-0.4691 -0.56548,2.7881 0,0 z m 326.94922,6 c 2.97515,7.9439 -14.05407,9.3784 -7.63374,14.6301 7.08449,-1.1545 8.56905,14.7543 12.84984,8.015 0.23613,-6.1862 15.48843,-7.803 9.5692,-13.2468 -9.14971,-0.081 -7.25563,-10.6846 -14.7853,-9.3983 z m -300.0625,2.9981 c -7.00867,-1.242 -12.18404,7.1098 -11.8869,13.2808 5.83757,7.2491 11.62055,-4.0187 15,-8.0161 -0.012,-1.9702 -2.32289,-3.5144 -3.1131,-5.2647 z m 1.11328,4.7558 c 0.19795,5.3945 -7.43206,5.5568 0,0 z m 160.09961,0.1426 c -9.35703,1.5013 -9.03929,14.0253 -0.88219,17.2096 10.51788,8.3026 24.05857,12.9411 36.93347,15.7885 8.67686,3.196 15.69461,-10.1752 7.34911,-14.6957 -14.38049,-1.9681 -28.80327,-6.2696 -39.18359,-16.9648 -1.40533,-0.4467 -2.81097,-0.8925 -4.2168,-1.3376 z m -104.74023,0.1035 c -11.01691,12.3357 -28.2816,13.8187 -42.54128,19.759 -8.0105,5.3474 1.48991,16.8434 9.21249,12.8089 14.09251,-5.4214 30.95703,-8.5117 41.28173,-19.9867 3.77601,-6.1258 -0.31169,-14.0332 -7.95294,-12.5812 z m -141.64063,2 c -1.27521,5.6522 -18.91358,7.8257 -9.14114,12.2956 7.69552,1.5779 10.71605,15.3804 15.35208,2.0775 11.04042,-2.6977 -1.45401,-9.5506 -4.76109,-13.9174 -0.23291,-0.7564 -0.94603,-0.3534 -1.44985,-0.4557 z m 74.28125,4 c 2.88539,-0.4691 -0.56548,2.7881 0,0 z m 62.5,39.795 c -12.15766,-0.5299 -25.52775,3.5266 -31.07918,15.2573 -4.94487,7.9666 -4.06539,18.275 -1.55064,26.8038 6.23332,16.328 28.84859,23.5601 42.83769,12.5278 12.3317,-8.8587 17.85573,-27.2825 8.51118,-40.2055 -4.11014,-7.8956 -11.19723,-10.5671 -18.71905,-14.3834 z m 129,0.02 c -11.6573,-0.5114 -24.24473,2.1591 -30.95822,12.6366 -6.48481,7.5861 -5.58908,18.1223 -4.39796,27.2225 4.15689,10.6867 13.30952,18.9759 24.85237,20.4671 2.76937,15.2053 -0.19554,31.4418 2.22633,46.4708 6.02836,7.4928 4.83066,8.2803 13.05557,13.2511 10.90292,4.6466 21.7504,-6.0051 25.20755,-15.3718 -0.62673,-19.2588 0.58753,-38.6225 -1.71797,-57.7858 -3.53294,-2.6056 -11.17638,-5.5652 -8.56191,-8.064 2.12327,-2.0293 8.14106,-24.3465 -19.70576,-38.8265 z m 102,14.1953 c 8.76011,0.2084 13.44004,9.096 11.56653,17.0826 -1.00956,16.2302 0.5065,33.1241 -2.0841,48.9389 -4.88625,8.716 -16.40097,3.5836 -24.48243,4.9375 -4.4886,-6.072 -0.86701,-16.2706 -2.08932,-24.0046 -0.0604,-15.1547 -0.11887,-30.3094 -0.17825,-45.4641 4.63759,-3.2851 11.84382,-0.6047 17.26757,-1.4903 z m -346.56445,0.9902 c 5.71434,1.3903 19.2092,-3.1064 18.50357,5.4847 0.0192,21.8378 0.0397,43.6756 0.0608,65.5134 -9.48242,-1.2443 -23.48013,3.9996 -27.83412,-7.6663 -1.35607,-18.4605 -0.5282,-37.5525 -1.04674,-56.2557 2.58433,-3.8743 5.96922,-5.6156 10.31646,-7.0761 z m 254.91992,30.8086 c 10.58723,-0.5535 8.40059,11.5605 8.82525,18.7073 -0.50615,14.1073 3.33841,28.7054 -0.73931,42.4099 -6.81709,7.9254 -18.17069,-0.497 -16.9255,-9.5145 0.16778,-14.3774 0.17681,-29.4899 3.9221,-43.2112 1.67303,-2.7735 3.10915,-5.7062 4.91746,-8.3915 z m -77.35547,37.9922 c -10.8697,-0.01 -21.42901,1.2189 -30.80824,7.1517 -8.59511,6.1238 -19.76464,13.6837 -21.33709,24.4892 1.2097,9.0244 11.59318,7.3024 14.08146,-0.1128 8.12252,-12.3628 23.01684,-18.6762 37.54079,-16.7593 15.13386,-1.0139 26.43071,10.8194 34.20472,22.4304 7.00683,2.2513 13.65862,-6.5587 7.62174,-11.9735 -8.41503,-13.6889 -22.90432,-23.1868 -39.01507,-24.7384 l -1.29658,-0.2761 z m -205.71484,31.1992 c -0.24891,5.5194 -2.85582,3.977 4.54049,6 -5.32769,7.8611 4.88891,3.6345 1.01647,-2.618 -1.6149,-1.9444 -2.7325,-4.0954 -5.55696,-3.382 z m 398.42773,0 c -1.66509,7.5781 -2.09959,10.2653 -3.03685,5.4336 -4.45724,7.7387 14.24037,6.7146 9.10896,-0.8153 -1.91406,-1.8622 -2.69186,-5.7882 -6.07211,-4.6183 z m -0.0566,3.5 c 2.40664,3.5562 -1.18676,5.7188 0,0 z m -0.15625,5.166 c 4.78687,2.382 -4.51677,1.4373 0,0 z m -313.83789,1.334 c -7.38927,2.0094 -1.21795,12.2133 3.28542,14.6133 9.1618,2.9789 8.27155,-9.5985 2.12724,-13.3397 -0.70844,-2.4477 -3.67643,-0.7813 -5.41266,-1.2736 z m 231.76563,0 c -6.35176,2.2677 -12.15019,12.9554 -3.48438,16 6.78914,-0.2331 14.70304,-11.2792 6.19947,-15.447 -0.49688,-1.1697 -1.85637,-0.2568 -2.71509,-0.553 z m -304.41016,29.5 c -0.12297,8.0179 -3.29609,17.3999 -12.36523,18.5508 -7.17086,-1.4338 -10.94435,10.7387 -3.15137,10.93 6.96305,-0.3375 13.7081,2.106 14.01855,10.1091 -1.13583,8.6623 11.09744,11.201 10.29601,1.4742 -0.70089,-8.428 8.35782,-12.0009 15.43837,-11.5643 6.99852,-7.3252 -2.0477,-12.1583 -9.4502,-11.7109 -7.30331,-3.2238 -4.43275,-12.1113 -8.02246,-17.7891 -2.25455,-10e-5 -4.50911,0 -6.76367,2e-4 z m 376.55274,1.5 c -3.86751,6.0378 -3.09603,15.6675 4.41006,17.3915 8.04343,2.7367 5.70318,10.3665 0.94926,15.1085 -8.5751,3.1548 -8.88566,-10.7874 -14.63672,-11.8925 -6.42354,-4.3598 -17.0748,4.8628 -9.3802,9.1693 5.40228,3.0596 14.74604,-1.861 15.576,7.0316 0.73408,6.0771 1.60819,15.0342 9.93897,12.1916 4.94315,-4.8027 -1.98753,-18.1654 8.11951,-17.0131 6.65631,1.9738 15.235,-4.4535 8.77898,-10.6543 -3.79549,-3.981 -16.96312,2.6712 -15.4772,-7.2051 -0.78075,-6.3129 1.93369,-16.7526 -8.27866,-14.1275 z m -374.96875,14 c 6.57115,0.3322 12.75857,10.2082 4.01562,13.2696 -5.28882,4.7939 -13.15656,-5.8767 -6.73633,-9.7032 z m 163.33398,15.5 c 22.02148,0.3334 44.04297,0.6667 66.06445,1 1.9558,10.1769 -0.88514,15.7759 -11.91785,13.557 -22.78772,1.3082 -45.62679,0.6111 -68.43957,0.943 -0.63314,-6.141 -4.45415,-17.4464 5.98841,-14.9433 z m -124.3418,12.3321 c -10.14318,2.1165 -2.7685,14.8859 3.28811,9.5566 9.45205,-7.1442 -2.34503,-4.4111 -3.28811,-9.5566 z m -1.84179,4.1328 c 9.62651,9.2508 -10.08997,2.4155 0,0 z m 3.74804,2.0351 c 2.88539,-0.469 -0.56548,2.7881 0,0 z" /></g></g></svg>
